<svg xmlns="http://www.w3.org/2000/svg" viewBox="0 0 320 180"><rect width="320" height="180" fill="#f0eeeb"/><text x="14" y="28" font-family="Georgia,serif" font-size="20" fill="#1a1a1a">Listening history</text><rect x="12.00" y="145.65" width="1.97" height="0.35" fill="#b9b7ee"/><rect x="14.47" y="141.67" width="1.97" height="4.33" fill="#b9b7ee"/><rect x="16.93" y="128.43" width="1.97" height="17.57" fill="#b9b7ee"/><rect x="19.40" y="127.19" width="1.97" height="18.81" fill="#cce879"/><rect x="21.87" y="131.35" width="1.97" height="14.65" fill="#cce879"/><rect x="24.33" y="128.89" width="1.97" height="17.11" fill="#cce879"/><rect x="26.80" y="129.27" width="1.97" height="16.73" fill="#f4c839"/><rect x="29.27" y="131.61" width="1.97" height="14.39" fill="#f4c839"/><rect x="31.73" y="130.53" width="1.97" height="15.47" fill="#f4c839"/><rect x="34.20" y="130.87" width="1.97" height="15.13" fill="#ff7948"/><rect x="36.67" y="135.66" width="1.97" height="10.34" fill="#ff7948"/><rect x="39.13" y="129.23" width="1.97" height="16.77" fill="#ff7948"/><rect x="41.60" y="121.86" width="1.97" height="24.14" fill="#b9b7ee"/><rect x="44.07" y="124.46" width="1.97" height="21.54" fill="#b9b7ee"/><rect x="46.53" y="116.31" width="1.97" height="29.69" fill="#b9b7ee"/><rect x="49.00" y="128.53" width="1.97" height="17.47" fill="#cce879"/><rect x="51.47" y="131.27" width="1.97" height="14.73" fill="#cce879"/><rect x="53.93" y="111.34" width="1.97" height="34.66" fill="#cce879"/><rect x="56.40" y="111.63" width="1.97" height="34.37" fill="#f4c839"/><rect x="58.87" y="113.25" width="1.97" height="32.75" fill="#f4c839"/><rect x="61.33" y="120.18" width="1.97" height="25.82" fill="#f4c839"/><rect x="63.80" y="105.41" width="1.97" height="40.59" fill="#ff7948"/><rect x="66.27" y="113.42" width="1.97" height="32.58" fill="#ff7948"/><rect x="68.73" y="120.37" width="1.97" height="25.63" fill="#ff7948"/><rect x="71.20" y="116.38" width="1.97" height="29.62" fill="#b9b7ee"/><rect x="73.67" y="128.63" width="1.97" height="17.37" fill="#b9b7ee"/><rect x="76.13" y="133.05" width="1.97" height="12.95" fill="#b9b7ee"/><rect x="78.60" y="108.80" width="1.97" height="37.20" fill="#cce879"/><rect x="81.07" y="111.40" width="1.97" height="34.60" fill="#cce879"/><rect x="83.53" y="103.21" width="1.97" height="42.79" fill="#cce879"/><rect x="86.00" y="110.66" width="1.97" height="35.34" fill="#f4c839"/><rect x="88.47" y="106.76" width="1.97" height="39.24" fill="#f4c839"/><rect x="90.93" y="73.32" width="1.97" height="72.68" fill="#f4c839"/><rect x="93.40" y="54.00" width="1.97" height="92.00" fill="#ff7948"/><rect x="95.87" y="87.34" width="1.97" height="58.66" fill="#ff7948"/><rect x="98.33" y="102.28" width="1.97" height="43.72" fill="#ff7948"/><rect x="100.80" y="78.60" width="1.97" height="67.40" fill="#b9b7ee"/><rect x="103.27" y="89.61" width="1.97" height="56.39" fill="#b9b7ee"/><rect x="105.73" y="83.35" width="1.97" height="62.65" fill="#b9b7ee"/><rect x="108.20" y="112.09" width="1.97" height="33.91" fill="#cce879"/><rect x="110.67" y="99.98" width="1.97" height="46.02" fill="#cce879"/><rect x="113.13" y="116.10" width="1.97" height="29.90" fill="#cce879"/><rect x="115.60" y="111.83" width="1.97" height="34.17" fill="#f4c839"/><rect x="118.07" y="130.43" width="1.97" height="15.57" fill="#f4c839"/><rect x="120.53" y="132.82" width="1.97" height="13.18" fill="#f4c839"/><rect x="123.00" y="133.45" width="1.97" height="12.55" fill="#ff7948"/><rect x="125.47" y="126.67" width="1.97" height="19.33" fill="#ff7948"/><rect x="127.93" y="115.37" width="1.97" height="30.63" fill="#ff7948"/><rect x="130.40" y="117.49" width="1.97" height="28.51" fill="#b9b7ee"/><rect x="132.87" y="127.55" width="1.97" height="18.45" fill="#b9b7ee"/><rect x="135.33" y="119.48" width="1.97" height="26.52" fill="#b9b7ee"/><rect x="137.80" y="124.52" width="1.97" height="21.48" fill="#cce879"/><rect x="140.27" y="116.19" width="1.97" height="29.81" fill="#cce879"/><rect x="142.73" y="126.02" width="1.97" height="19.98" fill="#cce879"/><rect x="145.20" y="123.89" width="1.97" height="22.11" fill="#f4c839"/><rect x="147.67" y="117.15" width="1.97" height="28.85" fill="#f4c839"/><rect x="150.13" y="117.92" width="1.97" height="28.08" fill="#f4c839"/><rect x="152.60" y="131.32" width="1.97" height="14.68" fill="#ff7948"/><rect x="155.07" y="128.84" width="1.97" height="17.16" fill="#ff7948"/><rect x="157.53" y="116.83" width="1.97" height="29.17" fill="#ff7948"/><rect x="160.00" y="108.22" width="1.97" height="37.78" fill="#b9b7ee"/><rect x="162.47" y="107.60" width="1.97" height="38.40" fill="#b9b7ee"/><rect x="164.93" y="127.71" width="1.97" height="18.29" fill="#b9b7ee"/><rect x="167.40" y="129.05" width="1.97" height="16.95" fill="#cce879"/><rect x="169.87" y="123.94" width="1.97" height="22.06" fill="#cce879"/><rect x="172.33" y="128.34" width="1.97" height="17.66" fill="#cce879"/><rect x="174.80" y="121.37" width="1.97" height="24.63" fill="#f4c839"/><rect x="177.27" y="126.97" width="1.97" height="19.03" fill="#f4c839"/><rect x="179.73" y="123.61" width="1.97" height="22.39" fill="#f4c839"/><rect x="182.20" y="124.72" width="1.97" height="21.28" fill="#ff7948"/><rect x="184.67" y="130.06" width="1.97" height="15.94" fill="#ff7948"/><rect x="187.13" y="130.40" width="1.97" height="15.60" fill="#ff7948"/><rect x="189.60" y="111.66" width="1.97" height="34.34" fill="#b9b7ee"/><rect x="192.07" y="115.50" width="1.97" height="30.50" fill="#b9b7ee"/><rect x="194.53" y="119.08" width="1.97" height="26.92" fill="#b9b7ee"/><rect x="197.00" y="114.77" width="1.97" height="31.23" fill="#cce879"/><rect x="199.47" y="121.07" width="1.97" height="24.93" fill="#cce879"/><rect x="201.93" y="106.24" width="1.97" height="39.76" fill="#cce879"/><rect x="204.40" y="122.07" width="1.97" height="23.93" fill="#f4c839"/><rect x="206.87" y="112.43" width="1.97" height="33.57" fill="#f4c839"/><rect x="209.33" y="116.57" width="1.97" height="29.43" fill="#f4c839"/><rect x="211.80" y="125.16" width="1.97" height="20.84" fill="#ff7948"/><rect x="214.27" y="112.06" width="1.97" height="33.94" fill="#ff7948"/><rect x="216.73" y="118.64" width="1.97" height="27.36" fill="#ff7948"/><rect x="219.20" y="129.81" width="1.97" height="16.19" fill="#b9b7ee"/><rect x="221.67" y="128.18" width="1.97" height="17.82" fill="#b9b7ee"/><rect x="224.13" y="136.21" width="1.97" height="9.79" fill="#b9b7ee"/><rect x="226.60" y="130.89" width="1.97" height="15.11" fill="#cce879"/><rect x="229.07" y="134.01" width="1.97" height="11.99" fill="#cce879"/><rect x="231.53" y="127.31" width="1.97" height="18.69" fill="#cce879"/><rect x="234.00" y="133.39" width="1.97" height="12.61" fill="#f4c839"/><rect x="236.47" y="138.62" width="1.97" height="7.38" fill="#f4c839"/><rect x="238.93" y="139.56" width="1.97" height="6.44" fill="#f4c839"/><rect x="241.40" y="141.63" width="1.97" height="4.37" fill="#ff7948"/><rect x="243.87" y="119.90" width="1.97" height="26.10" fill="#ff7948"/><rect x="246.33" y="138.09" width="1.97" height="7.91" fill="#ff7948"/><rect x="248.80" y="128.56" width="1.97" height="17.44" fill="#b9b7ee"/><rect x="251.27" y="137.90" width="1.97" height="8.10" fill="#b9b7ee"/><rect x="253.73" y="135.08" width="1.97" height="10.92" fill="#b9b7ee"/><rect x="256.20" y="124.21" width="1.97" height="21.79" fill="#cce879"/><rect x="258.67" y="119.15" width="1.97" height="26.85" fill="#cce879"/><rect x="261.13" y="131.04" width="1.97" height="14.96" fill="#cce879"/><rect x="263.60" y="126.82" width="1.97" height="19.18" fill="#f4c839"/><rect x="266.07" y="124.84" width="1.97" height="21.16" fill="#f4c839"/><rect x="268.53" y="129.65" width="1.97" height="16.35" fill="#f4c839"/><rect x="271.00" y="134.61" width="1.97" height="11.39" fill="#ff7948"/><rect x="273.47" y="128.94" width="1.97" height="17.06" fill="#ff7948"/><rect x="275.93" y="136.90" width="1.97" height="9.10" fill="#ff7948"/><rect x="278.40" y="132.24" width="1.97" height="13.76" fill="#b9b7ee"/><rect x="280.87" y="140.14" width="1.97" height="5.86" fill="#b9b7ee"/><rect x="283.33" y="122.99" width="1.97" height="23.01" fill="#b9b7ee"/><rect x="285.80" y="125.45" width="1.97" height="20.55" fill="#cce879"/><rect x="288.27" y="132.42" width="1.97" height="13.58" fill="#cce879"/><rect x="290.73" y="123.34" width="1.97" height="22.66" fill="#cce879"/><rect x="293.20" y="137.03" width="1.97" height="8.97" fill="#f4c839"/><rect x="295.67" y="132.57" width="1.97" height="13.43" fill="#f4c839"/><rect x="298.13" y="116.19" width="1.97" height="29.81" fill="#f4c839"/><rect x="300.60" y="132.88" width="1.97" height="13.12" fill="#ff7948"/><rect x="303.07" y="133.18" width="1.97" height="12.82" fill="#ff7948"/><rect x="305.53" y="133.76" width="1.97" height="12.24" fill="#ff7948"/><text x="14" y="166" font-family="Georgia,serif" font-size="12" fill="#5a5a5a">2016</text><text x="278" y="166" font-family="Georgia,serif" font-size="12" fill="#5a5a5a">2026</text></svg>